<?xml version="1.0" encoding="utf-8"?>
<!-- Generator: Adobe Illustrator 15.1.0, SVG Export Plug-In . SVG Version: 6.00 Build 0)  -->
<!DOCTYPE svg PUBLIC "-//W3C//DTD SVG 1.1//EN" "http://www.w3.org/Graphics/SVG/1.1/DTD/svg11.dtd">
<svg version="1.1" id="Layer_1" xmlns="http://www.w3.org/2000/svg" xmlns:xlink="http://www.w3.org/1999/xlink" x="0px" y="0px"
	 width="140px" height="83px" viewBox="0 0 140 83" enable-background="new 0 0 140 83" xml:space="preserve">
<g>
	<polygon fill="#204f79" points="117.1,0 89.9,48.1 68.4,10.2 46.9,48.1 19.6,0 	"/>
	<g>
		<path fill="#204F79" d="M137.1,82.3h2.9l-11.2-10.6l10.6-10.6h-2.8l-10.8,10.6L137.1,82.3z M95,82.3h2V61.2h-2V82.3z M95,82.3h2
			V61.2h-2V82.3z M95,82.3h2V61.2h-2V82.3z M21.3,82.3l6.2-21.1h-2.1l-5.4,18.7l-5-16.9h-2.6L7.4,79.9L2.1,61.2H0l6.2,21.1h2.5
			l5.1-17l5,17H21.3z"/>
		<rect x="122.7" y="61.2" fill="#204F79" width="2" height="21.1"/>
		<path fill="#204F79" d="M30.7,74.9l5-11.6l5,11.6H30.7z M36.6,61.2h-1.9l-9.4,21.1h2.1l2.4-5.6h11.7l2.4,5.6h2.1L36.6,61.2z"/>
		<polygon fill="#204F79" points="85.4,82.3 91.6,61.2 89.5,61.2 84.1,79.9 79.2,63 76.5,63 71.5,79.9 66.1,61.2 64.1,61.2 
			70.3,82.3 72.7,82.3 77.9,65.3 82.9,82.3 		"/>
		<path fill="#204F79" d="M111.7,81.1c-5.7,0-9.2-4.1-9.2-9.3c0,0,0,0,0,0c0-5.3,3.5-9.4,9.2-9.4c2.2,0,4.9,1,6.4,3.3l1.7-1.2
			c-2.1-2.7-4.9-3.9-8-3.9c-6.6,0-11.2,4.7-11.2,11.2c0,6.5,4.6,11.1,11.2,11.1c3.2,0,6-1.1,8-3.9l-1.7-1.2
			C116.6,80,113.9,81.1,111.7,81.1"/>
		<path fill="#204F79" d="M56.7,72.5c2.3-0.4,5.3-1.7,5.3-5.6c0-5.6-5.6-5.7-7.3-5.7h-6.1v21.1h2V63h4.3c4.2,0,5,2.5,5,3.9
			c0,1.5-0.8,3.9-5,4h-2.3v1.8h2l5.8,9.7h2.3L56.7,72.5z"/>
	</g>
</g>
</svg>
